<svg xmlns="http://www.w3.org/2000/svg" xmlns:xlink="http://www.w3.org/1999/xlink" width="256" zoomAndPan="magnify" viewBox="0 0 192 191.999996" height="256" preserveAspectRatio="xMidYMid meet" version="1.0"><defs><g/><clipPath id="fae88d969c"><path d="M 11.25 0 L 180.75 0 C 183.734375 0 186.59375 1.183594 188.703125 3.296875 C 190.816406 5.40625 192 8.265625 192 11.25 L 192 180.75 C 192 186.964844 186.964844 192 180.75 192 L 11.25 192 C 5.035156 192 0 186.964844 0 180.75 L 0 11.25 C 0 5.035156 5.035156 0 11.25 0 Z M 11.25 0 " clip-rule="nonzero"/></clipPath><clipPath id="8f499fb78e"><path d="M 60.453125 32.714844 L 90 32.714844 L 90 107.714844 L 60.453125 107.714844 Z M 60.453125 32.714844 " clip-rule="nonzero"/></clipPath><clipPath id="f9bbf9d3da"><path d="M 94 32.714844 L 123 32.714844 L 123 107.714844 L 94 107.714844 Z M 94 32.714844 " clip-rule="nonzero"/></clipPath><clipPath id="1df660d22a"><path d="M 127 32.714844 L 156.453125 32.714844 L 156.453125 107.714844 L 127 107.714844 Z M 127 32.714844 " clip-rule="nonzero"/></clipPath><clipPath id="ee3359448a"><path d="M 35.308594 73.167969 L 96 73.167969 L 96 97.40625 L 35.308594 97.40625 Z M 35.308594 73.167969 " clip-rule="nonzero"/></clipPath><clipPath id="fbbbf3ece5"><path d="M 39.058594 73.167969 L 92.25 73.167969 C 94.324219 73.167969 96 74.847656 96 76.917969 L 96 93.65625 C 96 95.726562 94.324219 97.40625 92.25 97.40625 L 39.058594 97.40625 C 36.984375 97.40625 35.308594 95.726562 35.308594 93.65625 L 35.308594 76.917969 C 35.308594 74.847656 36.984375 73.167969 39.058594 73.167969 Z M 39.058594 73.167969 " clip-rule="nonzero"/></clipPath></defs><g clip-path="url(#fae88d969c)"><rect x="-19.2" width="230.4" fill="#fffdf9" y="-19.2" height="230.399995" fill-opacity="1"/></g><g clip-path="url(#8f499fb78e)"><path fill="#fa295c" d="M 85.132812 66.753906 C 85.132812 69.023438 83.296875 70.863281 81.023438 70.863281 L 69.089844 70.863281 C 66.824219 70.863281 64.980469 69.023438 64.980469 66.753906 L 64.980469 40.355469 C 64.980469 38.085938 66.824219 36.242188 69.089844 36.242188 L 81.023438 36.242188 C 83.296875 36.242188 85.132812 38.085938 85.132812 40.355469 Z M 75.054688 97.085938 C 71.878906 97.085938 69.304688 94.511719 69.304688 91.335938 C 69.304688 88.160156 71.878906 85.582031 75.054688 85.582031 C 78.234375 85.582031 80.808594 88.160156 80.808594 91.335938 C 80.808594 94.511719 78.234375 97.085938 75.054688 97.085938 Z M 86.601562 32.6875 L 63.519531 32.6875 C 62.03125 32.6875 60.832031 33.894531 60.832031 35.375 L 60.832031 105.246094 C 60.832031 106.726562 62.03125 107.933594 63.519531 107.933594 L 86.601562 107.933594 C 88.082031 107.933594 89.285156 106.726562 89.285156 105.246094 L 89.285156 35.375 C 89.285156 33.894531 88.082031 32.6875 86.601562 32.6875 " fill-opacity="1" fill-rule="nonzero"/></g><path fill="#fa295c" d="M 78.675781 43.042969 L 71.445312 43.042969 C 68.625 43.042969 68.617188 47.308594 71.445312 47.308594 L 78.675781 47.308594 C 79.851562 47.308594 80.808594 46.355469 80.808594 45.175781 C 80.808594 44 79.851562 43.042969 78.675781 43.042969 " fill-opacity="1" fill-rule="nonzero"/><path fill="#fa295c" d="M 78.675781 51.183594 L 71.445312 51.183594 C 68.625 51.183594 68.617188 55.449219 71.445312 55.449219 L 78.675781 55.449219 C 79.851562 55.449219 80.808594 54.496094 80.808594 53.316406 C 80.808594 52.140625 79.851562 51.183594 78.675781 51.183594 " fill-opacity="1" fill-rule="nonzero"/><path fill="#fa295c" d="M 78.675781 59.324219 L 71.445312 59.324219 C 68.625 59.324219 68.617188 63.589844 71.445312 63.589844 L 78.675781 63.589844 C 79.851562 63.589844 80.808594 62.636719 80.808594 61.457031 C 80.808594 60.28125 79.851562 59.324219 78.675781 59.324219 " fill-opacity="1" fill-rule="nonzero"/><g clip-path="url(#f9bbf9d3da)"><path fill="#ffb50d" d="M 118.644531 66.753906 C 118.644531 69.023438 116.808594 70.863281 114.539062 70.863281 L 102.601562 70.863281 C 100.328125 70.863281 98.496094 69.023438 98.496094 66.753906 L 98.496094 40.355469 C 98.496094 38.085938 100.328125 36.242188 102.601562 36.242188 L 114.539062 36.242188 C 116.808594 36.242188 118.644531 38.085938 118.644531 40.355469 Z M 108.570312 97.085938 C 105.394531 97.085938 102.816406 94.511719 102.816406 91.335938 C 102.816406 88.160156 105.394531 85.582031 108.570312 85.582031 C 111.746094 85.582031 114.320312 88.160156 114.320312 91.335938 C 114.320312 94.511719 111.746094 97.085938 108.570312 97.085938 Z M 120.109375 32.6875 L 97.03125 32.6875 C 95.546875 32.6875 94.34375 33.894531 94.34375 35.375 L 94.34375 105.246094 C 94.34375 106.726562 95.546875 107.933594 97.03125 107.933594 L 120.109375 107.933594 C 121.59375 107.933594 122.792969 106.726562 122.792969 105.246094 L 122.792969 35.375 C 122.792969 33.894531 121.59375 32.6875 120.109375 32.6875 " fill-opacity="1" fill-rule="nonzero"/></g><path fill="#ffb50d" d="M 112.183594 43.042969 L 104.957031 43.042969 C 102.128906 43.042969 102.128906 47.308594 104.957031 47.308594 L 112.183594 47.308594 C 113.367188 47.308594 114.320312 46.355469 114.320312 45.175781 C 114.320312 44 113.367188 43.042969 112.183594 43.042969 " fill-opacity="1" fill-rule="nonzero"/><path fill="#ffb50d" d="M 112.183594 51.183594 L 104.957031 51.183594 C 102.128906 51.183594 102.128906 55.449219 104.957031 55.449219 L 112.183594 55.449219 C 113.367188 55.449219 114.320312 54.496094 114.320312 53.316406 C 114.320312 52.140625 113.367188 51.183594 112.183594 51.183594 " fill-opacity="1" fill-rule="nonzero"/><path fill="#ffb50d" d="M 112.183594 59.324219 L 104.957031 59.324219 C 102.128906 59.324219 102.128906 63.589844 104.957031 63.589844 L 112.183594 63.589844 C 113.367188 63.589844 114.320312 62.636719 114.320312 61.457031 C 114.320312 60.28125 113.367188 59.324219 112.183594 59.324219 " fill-opacity="1" fill-rule="nonzero"/><g clip-path="url(#1df660d22a)"><path fill="#fa295c" d="M 152.160156 66.753906 C 152.160156 69.023438 150.316406 70.863281 148.050781 70.863281 L 136.117188 70.863281 C 133.84375 70.863281 132.007812 69.023438 132.007812 66.753906 L 132.007812 40.355469 C 132.007812 38.085938 133.84375 36.242188 136.117188 36.242188 L 148.050781 36.242188 C 150.316406 36.242188 152.160156 38.085938 152.160156 40.355469 Z M 142.082031 97.085938 C 138.90625 97.085938 136.332031 94.511719 136.332031 91.335938 C 136.332031 88.160156 138.90625 85.582031 142.082031 85.582031 C 145.257812 85.582031 147.835938 88.160156 147.835938 91.335938 C 147.835938 94.511719 145.257812 97.085938 142.082031 97.085938 Z M 153.621094 32.6875 L 130.539062 32.6875 C 129.058594 32.6875 127.851562 33.894531 127.851562 35.375 L 127.851562 105.246094 C 127.851562 106.726562 129.058594 107.933594 130.539062 107.933594 L 153.621094 107.933594 C 155.109375 107.933594 156.308594 106.726562 156.308594 105.246094 L 156.308594 35.375 C 156.308594 33.894531 155.109375 32.6875 153.621094 32.6875 " fill-opacity="1" fill-rule="nonzero"/></g><path fill="#fa295c" d="M 145.695312 43.042969 L 138.464844 43.042969 C 135.644531 43.042969 135.644531 47.308594 138.464844 47.308594 L 145.695312 47.308594 C 146.875 47.308594 147.835938 46.355469 147.835938 45.175781 C 147.835938 44 146.875 43.042969 145.695312 43.042969 " fill-opacity="1" fill-rule="nonzero"/><path fill="#fa295c" d="M 145.695312 51.183594 L 138.464844 51.183594 C 135.644531 51.183594 135.644531 55.449219 138.464844 55.449219 L 145.695312 55.449219 C 146.875 55.449219 147.835938 54.496094 147.835938 53.316406 C 147.835938 52.140625 146.875 51.183594 145.695312 51.183594 " fill-opacity="1" fill-rule="nonzero"/><path fill="#fa295c" d="M 145.695312 59.324219 L 138.464844 59.324219 C 135.644531 59.324219 135.644531 63.589844 138.464844 63.589844 L 145.695312 63.589844 C 146.875 63.589844 147.835938 62.636719 147.835938 61.457031 C 147.835938 60.28125 146.875 59.324219 145.695312 59.324219 " fill-opacity="1" fill-rule="nonzero"/><g clip-path="url(#ee3359448a)"><g clip-path="url(#fbbbf3ece5)"><path fill="#ed2354" d="M 35.308594 73.167969 L 95.996094 73.167969 L 95.996094 97.40625 L 35.308594 97.40625 Z M 35.308594 73.167969 " fill-opacity="1" fill-rule="nonzero"/></g></g><g fill="#ffffff" fill-opacity="1"><g transform="translate(49.295514, 90.393383)"><g><path d="M 6.21875 -11.21875 C 7.238281 -11.21875 8.09375 -11.050781 8.78125 -10.71875 C 9.46875 -10.382812 10 -9.929688 10.375 -9.359375 C 10.757812 -8.785156 10.988281 -8.132812 11.0625 -7.40625 L 11.078125 -7.25 L 8.578125 -7.25 L 8.546875 -7.40625 C 8.273438 -8.71875 7.488281 -9.375 6.1875 -9.375 C 5.382812 -9.375 4.726562 -9.046875 4.21875 -8.390625 C 3.707031 -7.734375 3.453125 -6.796875 3.453125 -5.578125 C 3.453125 -4.660156 3.570312 -3.910156 3.8125 -3.328125 C 4.0625 -2.742188 4.390625 -2.3125 4.796875 -2.03125 C 5.210938 -1.757812 5.671875 -1.625 6.171875 -1.625 C 6.816406 -1.625 7.332031 -1.804688 7.71875 -2.171875 C 8.101562 -2.546875 8.363281 -3.0625 8.5 -3.71875 L 8.53125 -3.875 L 11.03125 -3.875 L 11.015625 -3.71875 C 10.890625 -2.46875 10.378906 -1.5 9.484375 -0.8125 C 8.597656 -0.125 7.460938 0.21875 6.078125 0.21875 C 5.078125 0.21875 4.179688 0 3.390625 -0.4375 C 2.597656 -0.875 1.972656 -1.515625 1.515625 -2.359375 C 1.054688 -3.210938 0.828125 -4.238281 0.828125 -5.4375 C 0.828125 -6.664062 1.066406 -7.707031 1.546875 -8.5625 C 2.023438 -9.425781 2.671875 -10.082031 3.484375 -10.53125 C 4.296875 -10.988281 5.207031 -11.21875 6.21875 -11.21875 Z M 6.21875 -11.21875 "/></g></g></g><g fill="#ffffff" fill-opacity="1"><g transform="translate(60.845966, 90.393383)"><g><path d="M 5.09375 -11.21875 C 6.007812 -11.21875 6.757812 -11.0625 7.34375 -10.75 C 7.9375 -10.445312 8.390625 -10.03125 8.703125 -9.5 C 9.023438 -8.96875 9.222656 -8.367188 9.296875 -7.703125 L 6.78125 -7.703125 C 6.707031 -8.210938 6.523438 -8.617188 6.234375 -8.921875 C 5.953125 -9.222656 5.546875 -9.375 5.015625 -9.375 C 4.628906 -9.375 4.3125 -9.28125 4.0625 -9.09375 C 3.8125 -8.90625 3.6875 -8.609375 3.6875 -8.203125 C 3.6875 -7.796875 3.851562 -7.46875 4.1875 -7.21875 C 4.519531 -6.96875 5.128906 -6.734375 6.015625 -6.515625 C 7.222656 -6.234375 8.101562 -5.800781 8.65625 -5.21875 C 9.207031 -4.644531 9.484375 -3.925781 9.484375 -3.0625 C 9.484375 -2.351562 9.285156 -1.753906 8.890625 -1.265625 C 8.492188 -0.773438 7.976562 -0.40625 7.34375 -0.15625 C 6.707031 0.09375 6.023438 0.21875 5.296875 0.21875 C 3.941406 0.21875 2.847656 -0.0664062 2.015625 -0.640625 C 1.179688 -1.222656 0.71875 -2.109375 0.625 -3.296875 L 3.140625 -3.296875 C 3.253906 -2.734375 3.507812 -2.3125 3.90625 -2.03125 C 4.300781 -1.757812 4.75 -1.625 5.25 -1.625 C 5.695312 -1.625 6.078125 -1.734375 6.390625 -1.953125 C 6.710938 -2.179688 6.875 -2.484375 6.875 -2.859375 C 6.875 -3.234375 6.726562 -3.554688 6.4375 -3.828125 C 6.144531 -4.097656 5.617188 -4.320312 4.859375 -4.5 C 4.078125 -4.695312 3.398438 -4.925781 2.828125 -5.1875 C 2.253906 -5.457031 1.816406 -5.8125 1.515625 -6.25 C 1.210938 -6.695312 1.0625 -7.269531 1.0625 -7.96875 C 1.0625 -8.65625 1.25 -9.238281 1.625 -9.71875 C 2.007812 -10.207031 2.503906 -10.578125 3.109375 -10.828125 C 3.722656 -11.085938 4.382812 -11.21875 5.09375 -11.21875 Z M 5.09375 -11.21875 "/></g></g></g><g fill="#ffffff" fill-opacity="1"><g transform="translate(70.659867, 90.393383)"><g><path d="M 7.515625 0 L 4.4375 0 L 0.515625 -11 L 3.21875 -11 L 6.015625 -1.921875 L 8.84375 -11 L 11.484375 -11 Z M 7.515625 0 "/></g></g></g><g fill="#fa295c" fill-opacity="1"><g transform="translate(64.235238, 140.690578)"><g><path d="M 28.15625 -18.875 L 23.34375 0 L 16.765625 0 L 14.390625 -14.6875 L 11.84375 0 L 5.25 0 L 0.71875 -18.875 L 5.9375 -18.875 L 8.453125 -3.828125 L 10.9375 -18.609375 L 18 -18.609375 L 20.390625 -3.78125 L 23.125 -18.875 Z M 28.15625 -18.875 "/></g></g></g><g fill="#fa295c" fill-opacity="1"><g transform="translate(90.519266, 140.690578)"><g><path d="M 12.25 -18.734375 C 13.164062 -18.628906 14.019531 -18.335938 14.8125 -17.859375 C 15.601562 -17.390625 16.242188 -16.726562 16.734375 -15.875 C 17.234375 -15.03125 17.484375 -13.988281 17.484375 -12.75 C 17.484375 -11.507812 17.234375 -10.460938 16.734375 -9.609375 C 16.242188 -8.765625 15.601562 -8.101562 14.8125 -7.625 C 14.019531 -7.15625 13.164062 -6.863281 12.25 -6.75 C 11.738281 -6.695312 11.265625 -6.660156 10.828125 -6.640625 C 10.390625 -6.628906 9.878906 -6.625 9.296875 -6.625 L 7.109375 -6.625 L 7.109375 0 L 2.1875 0 L 2.1875 -18.875 L 9.296875 -18.875 C 9.878906 -18.875 10.390625 -18.863281 10.828125 -18.84375 C 11.265625 -18.832031 11.738281 -18.796875 12.25 -18.734375 Z M 10.34375 -10.484375 C 10.976562 -10.535156 11.46875 -10.75 11.8125 -11.125 C 12.164062 -11.5 12.34375 -12.039062 12.34375 -12.75 C 12.34375 -13.457031 12.164062 -14 11.8125 -14.375 C 11.46875 -14.75 10.976562 -14.960938 10.34375 -15.015625 C 10.15625 -15.035156 9.953125 -15.046875 9.734375 -15.046875 C 9.515625 -15.046875 9.28125 -15.046875 9.03125 -15.046875 L 7.109375 -15.046875 L 7.109375 -10.453125 L 9.03125 -10.453125 C 9.28125 -10.453125 9.515625 -10.453125 9.734375 -10.453125 C 9.953125 -10.453125 10.15625 -10.460938 10.34375 -10.484375 Z M 10.34375 -10.484375 "/></g></g></g><g fill="#fa295c" fill-opacity="1"><g transform="translate(106.628512, 140.690578)"><g><path d="M 18.390625 -3.46875 C 19.347656 -3.175781 20.320312 -2.625 21.3125 -1.8125 L 18.953125 1.3125 C 18.078125 0.78125 17.367188 0.414062 16.828125 0.21875 C 16.296875 0.03125 15.710938 -0.0625 15.078125 -0.0625 C 14.691406 -0.0625 14.359375 -0.0390625 14.078125 0 C 13.796875 0.0390625 13.460938 0.101562 13.078125 0.1875 C 12.515625 0.320312 11.867188 0.390625 11.140625 0.390625 C 9.179688 0.390625 7.476562 -0.00390625 6.03125 -0.796875 C 4.582031 -1.597656 3.460938 -2.734375 2.671875 -4.203125 C 1.878906 -5.671875 1.484375 -7.414062 1.484375 -9.4375 C 1.484375 -11.457031 1.878906 -13.207031 2.671875 -14.6875 C 3.460938 -16.164062 4.582031 -17.300781 6.03125 -18.09375 C 7.476562 -18.882812 9.179688 -19.28125 11.140625 -19.28125 C 13.109375 -19.28125 14.8125 -18.882812 16.25 -18.09375 C 17.6875 -17.300781 18.800781 -16.164062 19.59375 -14.6875 C 20.394531 -13.207031 20.796875 -11.457031 20.796875 -9.4375 C 20.796875 -8.289062 20.59375 -7.195312 20.1875 -6.15625 C 19.789062 -5.113281 19.191406 -4.21875 18.390625 -3.46875 Z M 6.515625 -9.4375 C 6.515625 -7.445312 6.925781 -5.914062 7.75 -4.84375 C 8.582031 -3.769531 9.710938 -3.234375 11.140625 -3.234375 C 12.554688 -3.234375 13.679688 -3.769531 14.515625 -4.84375 C 15.347656 -5.914062 15.765625 -7.445312 15.765625 -9.4375 C 15.765625 -11.445312 15.347656 -12.988281 14.515625 -14.0625 C 13.679688 -15.132812 12.554688 -15.671875 11.140625 -15.671875 C 9.710938 -15.671875 8.582031 -15.132812 7.75 -14.0625 C 6.925781 -12.988281 6.515625 -11.445312 6.515625 -9.4375 Z M 6.515625 -9.4375 "/></g></g></g><g fill="#fa295c" fill-opacity="1"><g transform="translate(126.766484, 140.690578)"><g/></g></g><g fill="#f20b54" fill-opacity="1"><g transform="translate(52.343967, 157.142275)"><g><path d="M 4.546875 -7.265625 C 5.128906 -7.203125 5.601562 -6.976562 5.96875 -6.59375 C 6.332031 -6.207031 6.515625 -5.691406 6.515625 -5.046875 C 6.515625 -4.398438 6.328125 -3.882812 5.953125 -3.5 C 5.578125 -3.113281 5.109375 -2.882812 4.546875 -2.8125 C 4.234375 -2.78125 3.878906 -2.765625 3.484375 -2.765625 L 2.40625 -2.765625 L 2.40625 0 L 0.9375 0 L 0.9375 -7.328125 L 3.484375 -7.328125 C 3.890625 -7.328125 4.242188 -7.304688 4.546875 -7.265625 Z M 4.109375 -3.953125 C 4.679688 -4.035156 4.96875 -4.394531 4.96875 -5.03125 C 4.96875 -5.675781 4.679688 -6.039062 4.109375 -6.125 C 3.941406 -6.144531 3.722656 -6.15625 3.453125 -6.15625 L 2.40625 -6.15625 L 2.40625 -3.921875 L 3.453125 -3.921875 C 3.722656 -3.921875 3.941406 -3.929688 4.109375 -3.953125 Z M 4.109375 -3.953125 "/></g></g></g><g fill="#f20b54" fill-opacity="1"><g transform="translate(58.951167, 157.142275)"><g><path d="M 1.046875 -4.96875 C 1.566406 -5.519531 2.285156 -5.796875 3.203125 -5.796875 C 4.128906 -5.796875 4.847656 -5.519531 5.359375 -4.96875 C 5.878906 -4.414062 6.140625 -3.703125 6.140625 -2.828125 C 6.140625 -1.941406 5.878906 -1.222656 5.359375 -0.671875 C 4.847656 -0.117188 4.128906 0.15625 3.203125 0.15625 C 2.285156 0.15625 1.566406 -0.117188 1.046875 -0.671875 C 0.535156 -1.222656 0.28125 -1.941406 0.28125 -2.828125 C 0.28125 -3.703125 0.535156 -4.414062 1.046875 -4.96875 Z M 2.171875 -1.390625 C 2.429688 -1.046875 2.78125 -0.875 3.21875 -0.875 C 3.65625 -0.875 4 -1.046875 4.25 -1.390625 C 4.5 -1.734375 4.625 -2.207031 4.625 -2.8125 C 4.625 -3.425781 4.5 -3.90625 4.25 -4.25 C 4 -4.59375 3.65625 -4.765625 3.21875 -4.765625 C 2.78125 -4.765625 2.429688 -4.59375 2.171875 -4.25 C 1.921875 -3.90625 1.796875 -3.425781 1.796875 -2.8125 C 1.796875 -2.207031 1.921875 -1.734375 2.171875 -1.390625 Z M 2.171875 -1.390625 "/></g></g></g><g fill="#f20b54" fill-opacity="1"><g transform="translate(65.378077, 157.142275)"><g><path d="M 2.6875 -5.796875 C 3.332031 -5.796875 3.847656 -5.628906 4.234375 -5.296875 C 4.628906 -4.972656 4.859375 -4.546875 4.921875 -4.015625 L 3.453125 -4.015625 C 3.359375 -4.554688 3.070312 -4.828125 2.59375 -4.828125 C 2.375 -4.828125 2.207031 -4.769531 2.09375 -4.65625 C 1.976562 -4.550781 1.921875 -4.40625 1.921875 -4.21875 C 1.921875 -4.007812 2.015625 -3.835938 2.203125 -3.703125 C 2.398438 -3.578125 2.734375 -3.457031 3.203125 -3.34375 C 3.816406 -3.1875 4.273438 -2.96875 4.578125 -2.6875 C 4.890625 -2.414062 5.046875 -2.03125 5.046875 -1.53125 C 5.046875 -0.988281 4.828125 -0.570312 4.390625 -0.28125 C 3.953125 0.0078125 3.394531 0.15625 2.71875 0.15625 C 2.007812 0.15625 1.4375 0 1 -0.3125 C 0.5625 -0.625 0.300781 -1.09375 0.21875 -1.71875 L 1.6875 -1.71875 C 1.738281 -1.414062 1.859375 -1.1875 2.046875 -1.03125 C 2.234375 -0.882812 2.460938 -0.8125 2.734375 -0.8125 C 2.984375 -0.8125 3.179688 -0.863281 3.328125 -0.96875 C 3.484375 -1.082031 3.5625 -1.238281 3.5625 -1.4375 C 3.5625 -1.65625 3.457031 -1.832031 3.25 -1.96875 C 3.050781 -2.101562 2.707031 -2.234375 2.21875 -2.359375 C 1.644531 -2.492188 1.207031 -2.691406 0.90625 -2.953125 C 0.601562 -3.222656 0.453125 -3.585938 0.453125 -4.046875 C 0.453125 -4.585938 0.65625 -5.015625 1.0625 -5.328125 C 1.46875 -5.640625 2.007812 -5.796875 2.6875 -5.796875 Z M 2.6875 -5.796875 "/></g></g></g><g fill="#f20b54" fill-opacity="1"><g transform="translate(70.648985, 157.142275)"><g><path d="M 2.421875 -4.640625 L 2.421875 -2.03125 C 2.421875 -1.789062 2.421875 -1.625 2.421875 -1.53125 C 2.453125 -1.25 2.535156 -1.066406 2.671875 -0.984375 C 2.816406 -0.910156 3.085938 -0.882812 3.484375 -0.90625 L 3.484375 0.046875 C 3.179688 0.0859375 2.863281 0.109375 2.53125 0.109375 C 1.988281 0.109375 1.601562 0.0195312 1.375 -0.15625 C 1.144531 -0.332031 1.007812 -0.628906 0.96875 -1.046875 C 0.957031 -1.210938 0.953125 -1.484375 0.953125 -1.859375 L 0.953125 -4.640625 L 0.125 -4.640625 L 0.125 -5.609375 L 0.953125 -5.609375 L 0.953125 -6.984375 L 2.421875 -6.984375 L 2.421875 -5.609375 L 3.59375 -5.609375 L 3.59375 -4.640625 Z M 2.421875 -4.640625 "/></g></g></g><g fill="#f20b54" fill-opacity="1"><g transform="translate(74.477549, 157.142275)"><g/></g></g><g fill="#f20b54" fill-opacity="1"><g transform="translate(76.535002, 157.142275)"><g><path d="M 4.078125 -7.46875 C 5.035156 -7.46875 5.78125 -7.234375 6.3125 -6.765625 C 6.851562 -6.304688 7.164062 -5.695312 7.25 -4.9375 L 7.25 -4.84375 L 5.796875 -4.84375 L 5.765625 -4.9375 C 5.578125 -5.894531 5.007812 -6.375 4.0625 -6.375 C 3.46875 -6.375 2.988281 -6.132812 2.625 -5.65625 C 2.269531 -5.175781 2.09375 -4.523438 2.09375 -3.703125 C 2.09375 -2.816406 2.269531 -2.132812 2.625 -1.65625 C 2.988281 -1.175781 3.460938 -0.9375 4.046875 -0.9375 C 4.515625 -0.9375 4.890625 -1.066406 5.171875 -1.328125 C 5.453125 -1.597656 5.640625 -1.960938 5.734375 -2.421875 L 5.765625 -2.53125 L 7.21875 -2.53125 L 7.203125 -2.421875 C 7.128906 -1.628906 6.804688 -1 6.234375 -0.53125 C 5.660156 -0.0703125 4.910156 0.15625 3.984375 0.15625 C 2.941406 0.15625 2.109375 -0.179688 1.484375 -0.859375 C 0.859375 -1.546875 0.546875 -2.46875 0.546875 -3.625 C 0.546875 -4.789062 0.875 -5.722656 1.53125 -6.421875 C 2.195312 -7.117188 3.046875 -7.46875 4.078125 -7.46875 Z M 4.078125 -7.46875 "/></g></g></g><g fill="#f20b54" fill-opacity="1"><g transform="translate(84.149717, 157.142275)"><g><path d="M 3.375 -7.46875 C 4.207031 -7.46875 4.84375 -7.257812 5.28125 -6.84375 C 5.726562 -6.425781 5.992188 -5.867188 6.078125 -5.171875 L 4.578125 -5.171875 C 4.535156 -5.546875 4.410156 -5.835938 4.203125 -6.046875 C 3.992188 -6.265625 3.703125 -6.375 3.328125 -6.375 C 3.015625 -6.375 2.765625 -6.300781 2.578125 -6.15625 C 2.390625 -6.007812 2.296875 -5.789062 2.296875 -5.5 C 2.296875 -5.195312 2.410156 -4.957031 2.640625 -4.78125 C 2.867188 -4.601562 3.269531 -4.445312 3.84375 -4.3125 C 4.644531 -4.125 5.234375 -3.84375 5.609375 -3.46875 C 5.992188 -3.09375 6.1875 -2.609375 6.1875 -2.015625 C 6.1875 -1.347656 5.921875 -0.816406 5.390625 -0.421875 C 4.867188 -0.0351562 4.234375 0.15625 3.484375 0.15625 C 2.585938 0.15625 1.875 -0.0390625 1.34375 -0.4375 C 0.8125 -0.832031 0.515625 -1.410156 0.453125 -2.171875 L 1.9375 -2.171875 C 2.019531 -1.773438 2.195312 -1.46875 2.46875 -1.25 C 2.75 -1.039062 3.078125 -0.9375 3.453125 -0.9375 C 3.796875 -0.9375 4.082031 -1.019531 4.3125 -1.1875 C 4.539062 -1.363281 4.65625 -1.59375 4.65625 -1.875 C 4.65625 -2.175781 4.539062 -2.421875 4.3125 -2.609375 C 4.09375 -2.804688 3.71875 -2.96875 3.1875 -3.09375 C 2.375 -3.289062 1.765625 -3.550781 1.359375 -3.875 C 0.953125 -4.207031 0.75 -4.691406 0.75 -5.328125 C 0.75 -5.972656 1.003906 -6.488281 1.515625 -6.875 C 2.023438 -7.269531 2.644531 -7.46875 3.375 -7.46875 Z M 3.375 -7.46875 "/></g></g></g><g fill="#f20b54" fill-opacity="1"><g transform="translate(90.597833, 157.142275)"><g><path d="M 4.765625 0 L 2.921875 0 L 0.34375 -7.328125 L 1.9375 -7.328125 L 3.875 -1.125 L 5.84375 -7.328125 L 7.40625 -7.328125 Z M 4.765625 0 "/></g></g></g><g fill="#f20b54" fill-opacity="1"><g transform="translate(97.894391, 157.142275)"><g/></g></g><g fill="#f20b54" fill-opacity="1"><g transform="translate(99.951844, 157.142275)"><g><path d="M 6.234375 -1.15625 L 6.234375 0 L 0.9375 0 L 0.9375 -7.328125 L 6.125 -7.328125 L 6.125 -6.171875 L 2.40625 -6.171875 L 2.40625 -4.25 L 5.859375 -4.25 L 5.859375 -3.09375 L 2.40625 -3.09375 L 2.40625 -1.15625 Z M 6.234375 -1.15625 "/></g></g></g><g fill="#f20b54" fill-opacity="1"><g transform="translate(106.484806, 157.142275)"><g><path d="M 3.71875 -2.859375 L 5.703125 0 L 3.984375 0 L 2.828125 -1.953125 L 1.640625 0 L -0.03125 0 L 1.96875 -2.859375 L 0.046875 -5.640625 L 1.75 -5.640625 L 2.875 -3.765625 L 3.984375 -5.640625 L 5.671875 -5.640625 Z M 3.71875 -2.859375 "/></g></g></g><g fill="#f20b54" fill-opacity="1"><g transform="translate(112.222359, 157.142275)"><g><path d="M 4.015625 -5.796875 C 4.796875 -5.796875 5.410156 -5.53125 5.859375 -5 C 6.304688 -4.46875 6.53125 -3.773438 6.53125 -2.921875 C 6.53125 -1.953125 6.269531 -1.195312 5.75 -0.65625 C 5.238281 -0.113281 4.597656 0.15625 3.828125 0.15625 C 3.242188 0.15625 2.800781 0.046875 2.5 -0.171875 L 2.125 -0.75 L 2.125 2.078125 L 0.671875 2.078125 L 0.671875 -5.640625 L 2.125 -5.640625 L 2.125 -4.78125 L 2.5625 -5.40625 C 2.882812 -5.664062 3.367188 -5.796875 4.015625 -5.796875 Z M 3.546875 -0.875 C 3.984375 -0.875 4.335938 -1.039062 4.609375 -1.375 C 4.878906 -1.71875 5.015625 -2.203125 5.015625 -2.828125 C 5.015625 -3.410156 4.882812 -3.878906 4.625 -4.234375 C 4.375 -4.585938 4.03125 -4.765625 3.59375 -4.765625 C 3.15625 -4.765625 2.800781 -4.613281 2.53125 -4.3125 C 2.257812 -4.007812 2.125 -3.535156 2.125 -2.890625 L 2.125 -2.625 C 2.125 -2.03125 2.257812 -1.585938 2.53125 -1.296875 C 2.8125 -1.015625 3.148438 -0.875 3.546875 -0.875 Z M 3.546875 -0.875 "/></g></g></g><g fill="#f20b54" fill-opacity="1"><g transform="translate(119.041664, 157.142275)"><g><path d="M 1.046875 -4.96875 C 1.566406 -5.519531 2.285156 -5.796875 3.203125 -5.796875 C 4.128906 -5.796875 4.847656 -5.519531 5.359375 -4.96875 C 5.878906 -4.414062 6.140625 -3.703125 6.140625 -2.828125 C 6.140625 -1.941406 5.878906 -1.222656 5.359375 -0.671875 C 4.847656 -0.117188 4.128906 0.15625 3.203125 0.15625 C 2.285156 0.15625 1.566406 -0.117188 1.046875 -0.671875 C 0.535156 -1.222656 0.28125 -1.941406 0.28125 -2.828125 C 0.28125 -3.703125 0.535156 -4.414062 1.046875 -4.96875 Z M 2.171875 -1.390625 C 2.429688 -1.046875 2.78125 -0.875 3.21875 -0.875 C 3.65625 -0.875 4 -1.046875 4.25 -1.390625 C 4.5 -1.734375 4.625 -2.207031 4.625 -2.8125 C 4.625 -3.425781 4.5 -3.90625 4.25 -4.25 C 4 -4.59375 3.65625 -4.765625 3.21875 -4.765625 C 2.78125 -4.765625 2.429688 -4.59375 2.171875 -4.25 C 1.921875 -3.90625 1.796875 -3.425781 1.796875 -2.8125 C 1.796875 -2.207031 1.921875 -1.734375 2.171875 -1.390625 Z M 2.171875 -1.390625 "/></g></g></g><g fill="#f20b54" fill-opacity="1"><g transform="translate(125.468574, 157.142275)"><g><path d="M 3.546875 -5.78125 C 3.703125 -5.78125 3.835938 -5.765625 3.953125 -5.734375 L 3.953125 -4.5625 C 3.335938 -4.601562 2.878906 -4.46875 2.578125 -4.15625 C 2.273438 -3.851562 2.125 -3.332031 2.125 -2.59375 L 2.125 0 L 0.671875 0 L 0.671875 -5.640625 L 2.125 -5.640625 L 2.125 -4.609375 L 2.578125 -5.40625 C 2.847656 -5.65625 3.171875 -5.78125 3.546875 -5.78125 Z M 3.546875 -5.78125 "/></g></g></g><g fill="#f20b54" fill-opacity="1"><g transform="translate(129.498645, 157.142275)"><g><path d="M 2.421875 -4.640625 L 2.421875 -2.03125 C 2.421875 -1.789062 2.421875 -1.625 2.421875 -1.53125 C 2.453125 -1.25 2.535156 -1.066406 2.671875 -0.984375 C 2.816406 -0.910156 3.085938 -0.882812 3.484375 -0.90625 L 3.484375 0.046875 C 3.179688 0.0859375 2.863281 0.109375 2.53125 0.109375 C 1.988281 0.109375 1.601562 0.0195312 1.375 -0.15625 C 1.144531 -0.332031 1.007812 -0.628906 0.96875 -1.046875 C 0.957031 -1.210938 0.953125 -1.484375 0.953125 -1.859375 L 0.953125 -4.640625 L 0.125 -4.640625 L 0.125 -5.609375 L 0.953125 -5.609375 L 0.953125 -6.984375 L 2.421875 -6.984375 L 2.421875 -5.609375 L 3.59375 -5.609375 L 3.59375 -4.640625 Z M 2.421875 -4.640625 "/></g></g></g><g fill="#f20b54" fill-opacity="1"><g transform="translate(133.327208, 157.142275)"><g><path d="M 5.796875 -2.9375 C 5.796875 -2.726562 5.785156 -2.5625 5.765625 -2.4375 L 1.765625 -2.4375 C 1.847656 -1.394531 2.28125 -0.875 3.0625 -0.875 C 3.382812 -0.875 3.648438 -0.957031 3.859375 -1.125 C 4.066406 -1.300781 4.195312 -1.535156 4.25 -1.828125 L 5.703125 -1.828125 C 5.566406 -1.191406 5.257812 -0.703125 4.78125 -0.359375 C 4.300781 -0.015625 3.71875 0.15625 3.03125 0.15625 C 2.21875 0.15625 1.554688 -0.0976562 1.046875 -0.609375 C 0.535156 -1.117188 0.28125 -1.847656 0.28125 -2.796875 C 0.28125 -3.671875 0.546875 -4.390625 1.078125 -4.953125 C 1.609375 -5.515625 2.300781 -5.796875 3.15625 -5.796875 C 3.976562 -5.796875 4.625 -5.519531 5.09375 -4.96875 C 5.5625 -4.425781 5.796875 -3.75 5.796875 -2.9375 Z M 3.09375 -4.765625 C 2.363281 -4.765625 1.929688 -4.304688 1.796875 -3.390625 L 4.28125 -3.390625 C 4.1875 -4.304688 3.789062 -4.765625 3.09375 -4.765625 Z M 3.09375 -4.765625 "/></g></g></g><g fill="#f20b54" fill-opacity="1"><g transform="translate(139.457155, 157.142275)"><g><path d="M 3.546875 -5.78125 C 3.703125 -5.78125 3.835938 -5.765625 3.953125 -5.734375 L 3.953125 -4.5625 C 3.335938 -4.601562 2.878906 -4.46875 2.578125 -4.15625 C 2.273438 -3.851562 2.125 -3.332031 2.125 -2.59375 L 2.125 0 L 0.671875 0 L 0.671875 -5.640625 L 2.125 -5.640625 L 2.125 -4.609375 L 2.578125 -5.40625 C 2.847656 -5.65625 3.171875 -5.78125 3.546875 -5.78125 Z M 3.546875 -5.78125 "/></g></g></g></svg>